<svg xmlns="http://www.w3.org/2000/svg" width="95" height="95" fill="none">
  <g fill="#ffffff" fill-opacity=".15" clip-path="url(#a)" opacity=".8">
    <path d="M11.5 13a1.5 1.5 0 1 0 0-3 1.5 1.5 0 0 0 0 3Zm24 0a1.5 1.5 0 1 0 0-3 1.5 1.5 0 0 0 0 3Zm48 0a1.5 1.5 0 1 0 0-3 1.5 1.5 0 0 0 0 3Zm-24 0a1.5 1.5 0 1 0 0-3 1.5 1.5 0 0 0 0 3Zm-48 24a1.5 1.5 0 1 0 0-3 1.5 1.5 0 0 0 0 3Zm24 0a1.5 1.5 0 1 0 0-3 1.5 1.5 0 0 0 0 3Zm48 0a1.5 1.5 0 1 0 0-3 1.5 1.5 0 0 0 0 3Zm-24 0a1.5 1.5 0 1 0 0-3 1.5 1.5 0 0 0 0 3ZM13 59.5a1.5 1.5 0 1 1-3 0 1.5 1.5 0 0 1 3 0Zm24 0a1.5 1.5 0 1 1-3 0 1.5 1.5 0 0 1 3 0Zm48 0a1.5 1.5 0 1 1-3 0 1.5 1.5 0 0 1 3 0Zm-24 0a1.5 1.5 0 1 1-3 0 1.5 1.5 0 0 1 3 0ZM11.5 85a1.5 1.5 0 1 0 0-3 1.5 1.5 0 0 0 0 3Zm24 0a1.5 1.5 0 1 0 0-3 1.5 1.5 0 0 0 0 3Zm48 0a1.5 1.5 0 1 0 0-3 1.5 1.5 0 0 0 0 3Zm-24 0a1.5 1.5 0 1 0 0-3 1.5 1.5 0 0 0 0 3Z"/>
  </g>
  <defs>
    <clipPath id="a">
      <path fill="#fff" d="M0 0h95v95H0z"/>
    </clipPath>
  </defs>
</svg>
